<svg xmlns="http://www.w3.org/2000/svg" viewBox="0 0 236.05 17.04"><defs><style>.cls-1{fill:#fff;}</style></defs><title>logo</title><g id="圖層_2" data-name="圖層 2"><g id="圖層_1-2" data-name="圖層 1"><path class="cls-1" d="M43.88,7.35c0-3,0-3.58,0-4.22s-.19-1-.8-1.14a3.65,3.65,0,0,0-.73-.06c-.21,0-.32,0-.32-.18s.13-.18.41-.18c1,0,2.16.06,2.68.06.76,0,1.84-.06,2.7-.06,2.33,0,3.16.84,3.46,1.14a3.57,3.57,0,0,1,.93,2.37A4.54,4.54,0,0,1,47.61,9.9a2.64,2.64,0,0,1-.39,0c-.09,0-.22,0-.22-.18s.13-.22.52-.22c1,0,2.49-1.26,2.49-3.29a4,4,0,0,0-1.1-3A2.66,2.66,0,0,0,47,2.43a2.44,2.44,0,0,0-.73.08c-.09,0-.15.16-.15.38v8c0,1.83,0,3.41.09,4.26.06.56.17,1,.73,1.08a7.46,7.46,0,0,0,.95.08c.2,0,.3.06.3.16s-.15.2-.35.2c-1.23,0-2.4-.06-2.89-.06s-1.6.06-2.35.06c-.24,0-.37-.06-.37-.2s.08-.16.3-.16a2.89,2.89,0,0,0,.67-.08c.37-.08.47-.52.54-1.1.09-.84.09-2.41.09-4.24Z"/><path class="cls-1" d="M78.84,13.93c0,1.55.3,2.07.69,2.21a3.1,3.1,0,0,0,1,.14c.22,0,.33,0,.33.16s-.18.2-.45.2c-1.28,0-2.07-.06-2.44-.06-.18,0-1.1.06-2.12.06-.26,0-.43,0-.43-.2s.12-.16.32-.16a3.48,3.48,0,0,0,.89-.1c.51-.16.59-.74.61-2.47l.18-11.79c0-.4.06-.68.26-.68s.39.26.73.62,3.23,3.5,6.1,6.39c1.34,1.35,4,4.22,4.33,4.54h.1l-.2-8.94c0-1.21-.2-1.59-.67-1.79a3.18,3.18,0,0,0-1-.12c-.24,0-.32-.06-.32-.18s.22-.18.51-.18c1,0,2,.06,2.38.06.22,0,1-.06,1.93-.06.26,0,.45,0,.45.18s-.12.18-.35.18A2.16,2.16,0,0,0,91,2c-.55.16-.71.58-.73,1.69l-.22,12.57c0,.44-.08.62-.26.62s-.45-.22-.67-.44c-1.24-1.2-3.76-3.8-5.8-5.86s-4.33-4.64-4.68-5h-.06Z"/><path class="cls-1" d="M95.36,14.74a7.57,7.57,0,0,1-2.43-5.87,7.56,7.56,0,0,1,2.29-5.46,8.46,8.46,0,0,1,6.19-2.11,19.12,19.12,0,0,1,2.84.2c.74.1,1.37.28,2,.34.22,0,.29.12.29.24s-.06.4-.1,1.09,0,1.75-.06,2.15-.06.46-.24.46-.2-.16-.2-.44a2.87,2.87,0,0,0-.76-1.83,5.78,5.78,0,0,0-4-1.23,5.06,5.06,0,0,0-3.68,1.23,6.72,6.72,0,0,0-1.8,5.16c0,4.74,3.55,7.09,6.17,7.09,1.74,0,2.8-.2,3.59-1.12a3.33,3.33,0,0,0,.67-1.31c.06-.32.1-.4.25-.4s.18.14.18.3a19.14,19.14,0,0,1-.43,2.65.7.7,0,0,1-.51.58,11.16,11.16,0,0,1-3.53.46A9.69,9.69,0,0,1,95.36,14.74Z"/><path class="cls-1" d="M110.26,7.35c0-3,0-3.58,0-4.22s-.18-1-.78-1.14a3.43,3.43,0,0,0-.7-.06c-.2,0-.31,0-.31-.18s.13-.18.4-.18l1.46,0,1.13,0c.58,0,4.17,0,4.51,0a6.53,6.53,0,0,0,.78-.12,1.67,1.67,0,0,1,.29-.08c.09,0,.11.08.11.18S117,2,117,2.89c0,.2-.05,1.08-.09,1.31s-.05.22-.18.22-.16-.1-.16-.28a2.33,2.33,0,0,0-.11-.72c-.13-.36-.31-.6-1.21-.72-.31,0-2.2-.08-2.56-.08-.09,0-.13.06-.13.2v5c0,.14,0,.22.13.22.4,0,2.47,0,2.88,0s.7-.1.87-.3.2-.26.29-.26.13,0,.13.16-.07.44-.14,1.45c0,.4-.07,1.2-.07,1.33s0,.38-.16.38-.16-.08-.16-.18a5.77,5.77,0,0,0-.07-.72c-.09-.4-.34-.7-1-.78-.34,0-2.13-.06-2.56-.06-.09,0-.11.08-.11.2v1.57c0,.68,0,2.51,0,3.09,0,1.37.32,1.67,2.16,1.67a4.16,4.16,0,0,0,1.69-.24c.47-.24.69-.66.81-1.47,0-.22.07-.3.2-.3s.14.16.14.36a17.17,17.17,0,0,1-.23,2.21c-.13.52-.29.52-1,.52-1.35,0-2.34,0-3.12-.06s-1.33-.06-1.87-.06c-.2,0-.6,0-1,0s-.88,0-1.24,0-.36-.06-.36-.2.07-.16.29-.16a2.71,2.71,0,0,0,.65-.08c.36-.08.45-.52.52-1.1.09-.84.09-2.41.09-4.24Z"/><path class="cls-1" d="M120.66,16.4c-.31-.14-.37-.24-.37-.68,0-1.1.08-2.29.1-2.61s.08-.52.24-.52.2.18.2.34a4.25,4.25,0,0,0,.18,1,2.71,2.71,0,0,0,2.81,2,2.4,2.4,0,0,0,2.63-2.27c0-1-.29-1.89-1.92-3.19l-.9-.72c-2.16-1.71-2.91-3.11-2.91-4.72,0-2.19,1.81-3.76,4.53-3.76a9.38,9.38,0,0,1,2.61.34c.18,0,.27.1.27.24s-.08.84-.08,2.39c0,.44-.06.6-.22.6s-.2-.12-.2-.36a2.43,2.43,0,0,0-.51-1.31,2.47,2.47,0,0,0-2.14-1,2.08,2.08,0,0,0-2.34,2.05c0,.92.45,1.61,2.08,2.87l.55.42c2.38,1.81,3.22,3.19,3.22,5.08a4,4,0,0,1-1.85,3.46,5.61,5.61,0,0,1-3.12.82A6.71,6.71,0,0,1,120.66,16.4Z"/><path class="cls-1" d="M131.26,16.4c-.31-.14-.37-.24-.37-.68,0-1.1.08-2.29.1-2.61s.08-.52.24-.52.2.18.2.34a4.24,4.24,0,0,0,.18,1,2.71,2.71,0,0,0,2.81,2A2.4,2.4,0,0,0,137,13.69c0-1-.3-1.89-1.92-3.19l-.9-.72C132,8.07,131.3,6.68,131.3,5.06c0-2.19,1.81-3.76,4.53-3.76a9.38,9.38,0,0,1,2.61.34c.18,0,.27.1.27.24s-.08.84-.08,2.39c0,.44-.06.6-.22.6s-.2-.12-.2-.36a2.43,2.43,0,0,0-.51-1.31,2.47,2.47,0,0,0-2.14-1,2.08,2.08,0,0,0-2.34,2.05c0,.92.45,1.61,2.08,2.87l.55.42c2.38,1.81,3.22,3.19,3.22,5.08a4,4,0,0,1-1.85,3.46,5.61,5.61,0,0,1-3.12.82A6.71,6.71,0,0,1,131.26,16.4Z"/><path class="cls-1" d="M201.72,16.4c-.31-.14-.37-.24-.37-.68,0-1.1.08-2.29.1-2.61s.08-.52.24-.52.2.18.2.34a4.25,4.25,0,0,0,.18,1,2.71,2.71,0,0,0,2.81,2,2.4,2.4,0,0,0,2.63-2.27c0-1-.29-1.89-1.92-3.19l-.9-.72c-2.16-1.71-2.91-3.11-2.91-4.72,0-2.19,1.81-3.76,4.53-3.76a9.38,9.38,0,0,1,2.61.34c.18,0,.27.1.27.24s-.08.84-.08,2.39c0,.44-.06.6-.22.6s-.2-.12-.2-.36a2.43,2.43,0,0,0-.51-1.31,2.47,2.47,0,0,0-2.14-1,2.08,2.08,0,0,0-2.34,2.05c0,.92.45,1.61,2.08,2.87l.55.42c2.38,1.81,3.22,3.19,3.22,5.08a4,4,0,0,1-1.85,3.46,5.61,5.61,0,0,1-3.12.82A6.71,6.71,0,0,1,201.72,16.4Z"/><path class="cls-1" d="M223.76,16.4c-.31-.14-.37-.24-.37-.68,0-1.1.08-2.29.1-2.61s.08-.52.24-.52.2.18.2.34a4.25,4.25,0,0,0,.18,1,2.71,2.71,0,0,0,2.81,2,2.4,2.4,0,0,0,2.63-2.27c0-1-.29-1.89-1.92-3.19l-.9-.72c-2.16-1.71-2.91-3.11-2.91-4.72,0-2.19,1.81-3.76,4.53-3.76a9.38,9.38,0,0,1,2.61.34c.18,0,.27.1.27.24s-.08.84-.08,2.39c0,.44-.06.6-.22.6s-.2-.12-.2-.36a2.43,2.43,0,0,0-.51-1.31,2.47,2.47,0,0,0-2.14-1,2.08,2.08,0,0,0-2.34,2.05c0,.92.45,1.61,2.08,2.87l.55.42c2.38,1.81,3.22,3.19,3.22,5.08a4,4,0,0,1-1.85,3.46,5.61,5.61,0,0,1-3.12.82A6.71,6.71,0,0,1,223.76,16.4Z"/><path class="cls-1" d="M149.9,14.74a7.59,7.59,0,0,1-2.42-5.87,7.57,7.57,0,0,1,2.28-5.46,8.42,8.42,0,0,1,6.17-2.11,19,19,0,0,1,2.83.2c.74.1,1.37.28,2,.34.22,0,.29.12.29.24s-.06.4-.1,1.09,0,1.75-.06,2.15-.06.46-.23.46-.19-.16-.19-.44a2.87,2.87,0,0,0-.76-1.83,5.75,5.75,0,0,0-4-1.23A5,5,0,0,0,152,3.51a6.74,6.74,0,0,0-1.8,5.16c0,4.74,3.54,7.09,6.15,7.09,1.74,0,2.79-.2,3.57-1.12a3.36,3.36,0,0,0,.66-1.31c.06-.32.1-.4.25-.4s.17.14.17.3a19.16,19.16,0,0,1-.43,2.65.7.7,0,0,1-.51.58,11.09,11.09,0,0,1-3.52.46A9.64,9.64,0,0,1,149.9,14.74Z"/><path class="cls-1" d="M164.59,7.35c0-3,0-3.58,0-4.22s-.19-1-.82-1.14a3.82,3.82,0,0,0-.74-.06c-.21,0-.32,0-.32-.18s.13-.18.42-.18c1,0,2.2.06,2.6.06.65,0,2.09-.06,2.68-.06a5.85,5.85,0,0,1,3.5.86,3.51,3.51,0,0,1,1.29,2.73c0,1.47-.59,2.83-2.51,4.46,1.69,2.23,3,4,4.12,5.24a3.75,3.75,0,0,0,2.13,1.35,2.93,2.93,0,0,0,.53.06c.15,0,.23.06.23.16s-.13.2-.36.2h-1.8a3.71,3.71,0,0,1-2-.38,9.43,9.43,0,0,1-2.6-2.93c-.76-1.1-1.63-2.45-1.88-2.75a.39.39,0,0,0-.34-.14l-1.65,0c-.1,0-.15,0-.15.16v.28c0,1.85,0,3.43.09,4.26.06.58.17,1,.74,1.1a8.55,8.55,0,0,0,.93.08c.15,0,.23.06.23.16s-.13.2-.38.2c-1.1,0-2.51-.06-2.79-.06s-1.56.06-2.32.06c-.25,0-.38-.06-.38-.2s.08-.16.3-.16a3,3,0,0,0,.68-.08c.38-.08.47-.52.55-1.1.1-.84.1-2.41.1-4.24Zm2.24,1.57c0,.22,0,.3.17.36a4.78,4.78,0,0,0,1.44.2,1.84,1.84,0,0,0,1.35-.34,3.59,3.59,0,0,0,1.12-3c0-2.83-1.79-3.64-2.91-3.64a4,4,0,0,0-1,.08c-.13,0-.17.12-.17.28Z"/><path class="cls-1" d="M177.83,7.35c0-3,0-3.58,0-4.22s-.19-1-.83-1.14a3.89,3.89,0,0,0-.75-.06c-.21,0-.33,0-.33-.18s.13-.18.42-.18c1,0,2.23.06,2.8.06s1.67-.06,2.36-.06c.29,0,.42,0,.42.18s-.12.18-.31.18A2.82,2.82,0,0,0,181,2c-.52.1-.67.44-.71,1.14s0,1.19,0,4.22v2.79c0,2.89.56,4.1,1.5,4.9a3.47,3.47,0,0,0,2.4.82,3.69,3.69,0,0,0,2.65-1.08c1.06-1.1,1.11-2.89,1.11-4.94V7.35c0-3,0-3.58,0-4.22s-.19-1-.83-1.14a3.65,3.65,0,0,0-.69-.06c-.21,0-.33,0-.33-.18s.13-.18.4-.18c1,0,2.19.06,2.21.06.23,0,1.44-.06,2.19-.06.27,0,.4,0,.4.18s-.12.18-.34.18a2.84,2.84,0,0,0-.56.06c-.52.1-.67.44-.71,1.14s0,1.19,0,4.22V9.49c0,2.21-.21,4.56-1.82,6a5.6,5.6,0,0,1-4,1.43,6,6,0,0,1-4.26-1.38c-1-.92-1.71-2.39-1.71-5.28Z"/><path class="cls-1" d="M194.43,7.35c0-3,0-3.58,0-4.22s-.22-1-.63-1.12a2.49,2.49,0,0,0-.67-.08c-.19,0-.3,0-.3-.2s.15-.16.45-.16c.71,0,1.88.06,2.42.06s1.56-.06,2.27-.06c.24,0,.39,0,.39.16s-.11.2-.3.2a3,3,0,0,0-.56.06c-.5.1-.65.44-.69,1.14s0,1.19,0,4.22v3.51c0,1.93,0,3.5.07,4.36.06.54.19.9.74,1a7.46,7.46,0,0,0,.95.08c.2,0,.3.06.3.16s-.15.2-.35.2c-1.23,0-2.4-.06-2.91-.06s-1.6.06-2.34.06c-.24,0-.37-.06-.37-.2s.07-.16.3-.16a2.88,2.88,0,0,0,.67-.08c.37-.08.48-.42.54-1,.09-.84.09-2.41.09-4.34Z"/><path class="cls-1" d="M213.32,7.35c0-3,0-3.58,0-4.22s-.18-1-.79-1.14a3.57,3.57,0,0,0-.72-.06c-.2,0-.31,0-.31-.18s.13-.18.4-.18l1.49,0,1.16,0c.59,0,4.24,0,4.59,0a6.75,6.75,0,0,0,.79-.12,1.76,1.76,0,0,1,.29-.08c.09,0,.11.08.11.18s-.09.38-.15,1.29c0,.2-.05,1.08-.09,1.31s-.05.22-.18.22-.16-.1-.16-.28a2.3,2.3,0,0,0-.11-.72c-.13-.36-.31-.6-1.23-.72-.31,0-2.24-.08-2.61-.08-.09,0-.13.06-.13.2v5c0,.14,0,.22.13.22.4,0,2.52,0,2.94,0s.72-.1.88-.3.2-.26.29-.26.13,0,.13.16-.07.44-.15,1.45c0,.4-.07,1.2-.07,1.33s0,.38-.16.38-.17-.08-.17-.18a5.62,5.62,0,0,0-.07-.72c-.09-.4-.35-.7-1-.78-.35,0-2.17-.06-2.61-.06-.09,0-.11.08-.11.2v1.57c0,.68,0,2.51,0,3.09,0,1.37.33,1.67,2.2,1.67a4.32,4.32,0,0,0,1.73-.24c.48-.24.7-.66.83-1.47,0-.22.07-.3.2-.3s.15.16.15.36a16.91,16.91,0,0,1-.24,2.21c-.13.52-.29.52-1,.52-1.38,0-2.39,0-3.18-.06s-1.36-.06-1.91-.06c-.2,0-.61,0-1,0s-.9,0-1.27,0-.37-.06-.37-.2.07-.16.29-.16a2.81,2.81,0,0,0,.66-.08c.37-.08.46-.52.53-1.1.09-.84.09-2.41.09-4.24Z"/><path class="cls-1" d="M73.66,16.28a7.47,7.47,0,0,1-.95-.08c-.56-.08-.69-.44-.74-1-.07-.86-.07-2.43-.07-4.36V7.35c0-3,0-3.58,0-4.22s.19-1,.69-1.14a3,3,0,0,1,.56-.06c.19,0,.3,0,.3-.2s-.15-.16-.39-.16c-.71,0-1.81.06-2.27.06s-1.71-.06-2.42-.06c-.3,0-.45,0-.45.16s.11.2.3.2a2.48,2.48,0,0,1,.67.08c.41.1.6.44.63,1.12s0,1.19,0,4.22v3.51c0,1.93,0,3.5-.09,4.34-.06.58-.17.92-.54,1a3,3,0,0,1-.59.07h-.5a2.65,2.65,0,0,1-.47-.05,3.65,3.65,0,0,1-2.08-1.35c-1.1-1.24-2.38-3-4-5.24,1.88-1.63,2.46-3,2.46-4.46a3.53,3.53,0,0,0-1.27-2.73A5.64,5.64,0,0,0,59,1.58c-.58,0-2,.06-2.62.06-.39,0-1.56-.06-2.55-.06-.28,0-.41,0-.41.18s.11.18.32.18a3.66,3.66,0,0,1,.73.06c.61.14.76.46.8,1.14s0,1.19,0,4.22v3.51c0,1.83,0,3.41-.09,4.24-.07.58-.17,1-.54,1.1a2.89,2.89,0,0,1-.67.08c-.22,0-.3.06-.3.16s.13.2.37.2c.74,0,1.92-.06,2.27-.06s1.66.06,2.74.06c.24,0,.37-.06.37-.2s-.07-.16-.22-.16a8.18,8.18,0,0,1-.91-.08c-.56-.08-.67-.52-.73-1.1-.09-.84-.09-2.41-.09-4.26v-.28c0-.12.06-.16.15-.16l1.62,0a.37.37,0,0,1,.34.14c.24.3,1.1,1.65,1.84,2.75A9.35,9.35,0,0,0,64,16.26a3.57,3.57,0,0,0,2,.38h2.35c.74,0,1.92-.06,2.35-.06s1.68.06,2.9.06c.2,0,.35-.06.35-.2S73.86,16.28,73.66,16.28ZM59.09,9.49a4.6,4.6,0,0,1-1.41-.2c-.13-.06-.17-.14-.17-.36V2.87c0-.16,0-.24.17-.28a3.84,3.84,0,0,1,1-.08c1.1,0,2.85.82,2.85,3.64a3.62,3.62,0,0,1-1.1,3A1.77,1.77,0,0,1,59.09,9.49Z"/><path class="cls-1" d="M14.07,12c4.7,2.89,6.66,1.45,8.68.12,4.9-3.21,7.67,1.11,10.83,1.54a5.34,5.34,0,0,0,3.24-.74c-4,7.32-9.19,2.79-11.34,1.81-1.7-.78-2.61-1.76-6.42.08-3.32,1.61-7.73,3-11.76,1.74h0c.47-1.29,1.19-3,2.44-3,.36,0,2.36.13,2.57.1a.51.51,0,0,0,.44-.39c.1-.43-.08-.53-.1-.67s.12-.18.24-.28.21-.26.16-.39-.29-.15-.37-.19-.06-.19.07-.21c.68-.09.64-.45.57-.58-.28-.5.09-.57.27-.6a2.44,2.44,0,0,0,.41,0c.38-.07.22-.51.22-.51s-.38-2.28-.47-2.69.11-.49.45-.34l.09.06h0C18.69,9.61,19.3,9.42,23,7c4.76-3.12,7.36,1,10.64,1.47a5.35,5.35,0,0,0,3.24-.75c-3.53,6.41-8.46,3.33-12.44,1.46-3.76-1.76-6.28,3.37-10.26,2.71C14,11.86,14,12,14.07,12ZM33.76,3c-4-.54-6.23-4-10.53-1.14-2.62,1.72-3.6,3.16-8.78,0A14.31,14.31,0,0,0,8.84,0,8.4,8.4,0,0,0,0,8a8,8,0,0,0,2.5,6.39.34.34,0,0,0,.55-.08l0-.12L5.77,7.85s1.44-3.76,5-2.58c1.14.37,2.09.74,2.94,1,2,.62,3.51.63,5.86-1.23a4.65,4.65,0,0,1,5.11-1C27.86,5.53,33.2,9.17,37,2.28A5.38,5.38,0,0,1,33.76,3Z"/><path class="cls-1" d="M233.15,2.79a1.45,1.45,0,1,1,1.45,1.37A1.38,1.38,0,0,1,233.15,2.79Zm2.6,0a1.15,1.15,0,0,0-2.3,0,1.15,1.15,0,0,0,2.3,0ZM234,2.55V2.16c0-.09-.06-.11-.19-.11s0,0,0,0,0-.06.08-.06h.06l.27,0,.36,0c.27,0,.69,0,.69.43,0,.16-.06.29-.33.47l.28.33c.21.24.24.24.27.24a0,0,0,0,1,0,0s0,.06-.14.06a.61.61,0,0,1-.62-.3l-.22-.3h-.19v.14c0,.28,0,.32,0,.33a.49.49,0,0,0,.16,0s0,0,0,0a.06.06,0,0,1-.06.06h-.06l-.25,0-.24,0h-.08s-.11,0-.11-.06a0,0,0,0,1,0,0c.14,0,.16,0,.17-.09a3.25,3.25,0,0,0,0-.41Zm.35.16a.5.5,0,0,0,.22,0,.23.23,0,0,0,.14,0,.3.3,0,0,0,.14-.27.34.34,0,0,0-.36-.35s-.11,0-.14,0Z"/></g></g></svg>