<?xml version="1.0" encoding="utf-8"?>
<!-- Generator: Adobe Illustrator 21.1.0, SVG Export Plug-In . SVG Version: 6.00 Build 0)  -->
<svg version="1.1" id="圖層_1" xmlns="http://www.w3.org/2000/svg" xmlns:xlink="http://www.w3.org/1999/xlink" x="0px" y="0px"
	 viewBox="0 0 322 17.9" style="enable-background:new 0 0 322 17.9;" xml:space="preserve">
<style type="text/css">
	.st0{fill:#FFFFFF;}
</style>
<title>資產 1</title>
<g id="圖層_2">
	<g id="圖層_1-2">
		<path class="st0" d="M244.7,1.4c0-0.1,0.1-0.2,0.3-0.1c0.8,0.2,1.6,0.5,2.2,0.9c0.2,0.1,0.3,0.3,0.2,0.4s-0.2,0.3-0.6,0.3h-0.1
			l-1.4,2.3c-1.1,2-2.7,3.7-4.7,4.8c-0.1,0.1-0.2,0.1-0.3,0s0-0.2,0.1-0.2c1.8-1.9,3.1-4.2,3.8-6.8L244.7,1.4z M243.3,17
			c-0.4,0.1-0.6,0.2-0.6,0.3s-0.2,0.3-0.3,0.3c-0.2,0-0.3-0.1-0.4-0.2c-0.3-0.7-0.5-1.4-0.6-2.1c0-0.1,0-0.2,0.2-0.1h2.3
			c1-1.8,1.7-3.8,2.2-5.8l0.4-2.3c0-0.1,0.1-0.2,0.1-0.1c0.8,0.1,1.5,0.3,2.3,0.6c0.3,0.1,0.4,0.2,0.4,0.3s-0.1,0.2-0.4,0.3
			c-0.1,0-0.2,0.1-0.2,0.2c-0.9,2.5-2.3,4.8-4.1,6.8l2.1-0.1c2.3-0.1,4.5-0.3,6.5-0.6c-0.5-1-1.2-1.9-2.2-2.6
			c-0.1,0-0.1-0.1-0.1-0.2c0,0,0,0,0,0c0-0.1,0.1-0.1,0.2-0.1c2.6,0.9,4.2,2.2,4.8,4c0.2,0.4,0.2,0.8,0,1.2
			c-0.1,0.4-0.4,0.6-0.8,0.7c-0.3,0.1-0.7,0-1-0.2c-0.2-0.3-0.4-0.6-0.4-1l-0.4-1.2L243.3,17z M249.4,1.1h1.2l0.4-0.5
			c0.1,0,0.1-0.1,0.2-0.1l1,0.5c0.3,0.2,0.2,0.5-0.3,0.7c-0.1,0-0.1,0.1-0.1,0.3l0.1,0.2c1.3,3.2,3.3,5,6,5.4c0.2,0,0.2,0.1,0.2,0.2
			s0,0.2-0.2,0.2c-1,0.3-1.8,1-2.2,2c-0.1,0.2-0.1,0.2-0.4,0c-2.2-1.5-3.6-4.3-4.3-8.4h-1.7l-1,0.1c-0.1,0.1-0.2,0.1-0.2,0L247.9,1
			c0-0.1,0.1-0.1,0.2-0.1L249.4,1.1z"/>
		<path class="st0" d="M269,10.8h-4.3l-1.1,0.2c-0.1,0.1-0.2,0-0.2-0.1l-0.2-0.6c0-0.1,0-0.1,0.2-0.1l1.3,0.1h4.3V5.1h-5.5l-1.1,0.2
			c-0.1,0.1-0.2,0-0.2-0.1L262,4.6c0-0.1,0-0.1,0.2-0.1l1.3,0.1h5.5V0.4c0-0.1,0-0.1,0.1-0.1c0.7,0,1.5,0.1,2.2,0.3
			c0.3,0.1,0.4,0.2,0.4,0.3c0,0.2-0.1,0.3-0.4,0.4s-0.2,0.1-0.2,0.3v3.1h3.5c0.2,0,0.3-0.1,0.4-0.2l1.1-1.3c0.1-0.1,0.2-0.1,0.4,0
			c0.7,0.4,1.4,1,1.9,1.7c0.1,0.1,0.1,0.2,0.1,0.3s-0.1,0.1-0.3,0.1h-7v5.2h2.4c0.1,0,0.3-0.1,0.4-0.2l1-1.4c0.1-0.1,0.2-0.1,0.4,0
			c0.8,0.4,1.4,1,1.9,1.7c0.1,0.1,0.1,0.2,0.1,0.2s-0.1,0.1-0.3,0.1h-5.9v5.9h4.2c0.2,0,0.3-0.1,0.4-0.2l1.1-1.4
			c0.1-0.1,0.2-0.1,0.4,0c0.7,0.4,1.4,1,1.9,1.6c0.1,0.1,0.1,0.2,0.1,0.3c0,0.1-0.1,0.1-0.3,0.1h-16l-1.1,0.2
			c-0.1,0.1-0.2,0-0.2-0.1l-0.2-0.6c0-0.1,0-0.1,0.2-0.1l1.3,0.1h6.1L269,10.8z"/>
		<path class="st0" d="M284.8,10h-0.7l-1,0.1c-0.1,0.1-0.2,0-0.3,0l-0.2-0.6c0-0.1,0-0.1,0.2-0.1l1.3,0.1h0.4c0.1,0,0.2-0.1,0.2-0.2
			l0.6-0.6h0.2c0.6,0.3,1.1,0.6,1.6,1l0.2,0.2l-0.5,0.6V14c0.1,0.2,0.2,0.4,0.4,0.6c1.1,0.7,2.4,1.1,3.8,1.1c3,0.2,6,0.1,8.9-0.4
			c0.1,0,0.2,0,0.2,0.1c0.1,0.1,0,0.1-0.1,0.2c-0.7,0.4-1.2,1.2-1.1,2.1c0,0.1,0,0.2-0.1,0.2h-0.1c-2.6,0.1-5.2,0-7.8-0.2
			c-2.1-0.2-3.9-1.5-4.9-3.3c-0.1-0.1-0.1-0.2-0.2-0.2s-0.3,0.3-0.5,0.8c-0.6,0.8-1.1,1.7-1.5,2.6c0,0.1,0,0.2-0.1,0.2
			s-0.1,0-0.3-0.1c-0.4-0.5-0.7-1.1-1-1.7c0-0.1,0-0.1,0.1-0.2c0.9-0.5,1.6-1.1,2.2-1.9L284.8,10z M283,4.2c0-0.1,0.1-0.1,0.2-0.1
			l0,0c1.2,0,2.3,0.6,3,1.5c0.2,0.4,0.2,0.8,0.1,1.2c-0.1,0.4-0.4,0.6-0.7,0.7c-0.8,0.2-1.3-0.2-1.5-1.1c-0.1-0.8-0.5-1.5-1.1-2
			C283,4.3,283,4.2,283,4.2z M283.5,0.5c0-0.1,0.1-0.1,0.2-0.1c1.1-0.1,2.2,0.3,3,1.2c0.2,0.4,0.3,0.8,0.2,1.2
			c-0.1,0.4-0.3,0.7-0.7,0.8c-0.8,0.3-1.3-0.1-1.5-1.1c-0.1-0.7-0.4-1.4-1-1.8C283.6,0.7,283.5,0.6,283.5,0.5L283.5,0.5z M293.2,5.7
			c-0.1,0-0.1,0-0.2,0l0.6-1.4h-3.2l-0.1,2.2h0.2c0.2,0,0.4,0,0.5-0.1l0.6-0.6c0.1-0.1,0.2-0.1,0.3-0.1c0.5,0.2,0.9,0.5,1.3,0.7
			c0.2,0.1,0.3,0.3,0.2,0.4s-0.1,0.3-0.4,0.3c-0.1,0-0.2,0.2-0.2,0.3c-0.2,3.6-0.6,5.7-1,6.3c-0.4,0.6-1.2,1-1.9,0.9
			c-0.1,0-0.1,0-0.1-0.1c0-0.6-0.3-1.2-0.8-1.5c-0.1,0-0.2-0.1-0.1-0.2c0.1-0.1,0.2-0.1,0.2-0.1c0,0,0,0,0,0c0.4,0,0.8,0,1.1-0.1
			c0.2-0.1,0.4-0.6,0.5-1.2c0.4-2.7,0.5-4.2,0.3-4.6h-0.5L290.3,7v0.7c-0.3,3.3-1.3,5.4-3,6.5c-0.1,0.1-0.1,0.1-0.2,0s0-0.1,0-0.2
			c0.9-1.7,1.4-4.9,1.4-9.6h-0.2l-1.2,0.1c-0.1,0-0.1,0-0.1-0.1l-0.1-0.6c0-0.1,0-0.1,0.2-0.1l1.4,0.1h0.7V0.5c0,0,0-0.1,0.1-0.1
			c0.6,0,1.3,0.1,1.9,0.2c0.2,0.1,0.4,0.2,0.4,0.3s-0.1,0.3-0.3,0.3s-0.2,0.1-0.2,0.2v2.3h0.7c0.1,0,0.2,0,0.2-0.1l0.7-0.9
			c0.1-0.1,0.2-0.2,0.3-0.1c0,0,0,0,0,0c0.4,0.3,0.8,0.7,1,1.2l0.8-3.5c0-0.1,0.1-0.2,0.2-0.1c0,0,0,0,0,0c0.6,0.1,1.2,0.2,1.8,0.5
			c0.3,0.1,0.4,0.2,0.4,0.4s-0.1,0.2-0.4,0.3c-0.1,0-0.2,0.1-0.3,0.3l-0.9,1.6h1.8c0.1,0,0.2-0.1,0.3-0.2l0.8-1.1
			c0.1-0.1,0.3-0.2,0.4-0.1c0,0,0,0,0,0c0.5,0.4,0.8,0.8,1.2,1.3c0.1,0.1,0.1,0.3,0.1,0.3c-0.1,0.1-0.2,0.2-0.3,0.2h-4.6
			C294.6,4.5,294,5.2,293.2,5.7L293.2,5.7z M297.2,13.7c0,0.4-0.1,0.8-0.4,1.1c-0.5,0.4-1,0.6-1.6,0.6c-0.1,0-0.1,0-0.1-0.1
			c0.1-0.7-0.3-1.4-1-1.7c-0.1,0-0.1-0.1-0.1-0.2c0-0.1,0.1-0.1,0.1-0.1c0,0,0,0,0,0l0.6,0.1c0.4,0,0.6-0.1,0.6-0.4v-2.9h-0.8
			l-1.2,0.1c-0.1,0-0.1,0-0.1-0.1l-0.1-0.6c0-0.1,0-0.1,0.2-0.1l1.4,0.1h0.8V7.5c0-0.1,0-0.1,0.1-0.1l1.1,0.1l0.8-1.3h-2l-1,0.2
			c-0.2,0.1-0.2,0.1-0.3,0l-0.1-0.7c0-0.1,0-0.2,0.2-0.1l1.3,0.2h1.7c0.1,0,0.2-0.1,0.3-0.1l0.7-0.4c0.1,0,0.2,0,0.3,0
			c0.6,0.3,1.2,0.7,1.7,1.2c0.1,0.1,0.1,0.2,0.1,0.4c-0.1,0.1-0.3,0.1-0.4,0.1c-0.7,0.2-1.4,0.5-2,0.9c0.1,0,0.1,0.1,0.1,0.2
			c0,0.2-0.1,0.3-0.4,0.4s-0.1,0.1-0.1,0.3v1.1h0.7c0.1,0,0.2,0,0.2-0.1l0.7-0.9c0.1-0.2,0.2-0.2,0.4-0.1c0.4,0.3,0.7,0.7,1,1.1
			c0.1,0.1,0.1,0.2,0.1,0.4c-0.1,0.1-0.2,0.2-0.3,0.1h-2.8L297.2,13.7z"/>
		<path class="st0" d="M310.7,7.5v3.9c0,0.2-0.1,0.4-0.3,0.5c-0.3,0.1-0.6,0.2-0.9,0.2c-0.3,0-0.6-0.2-0.7-0.5c0,0,0-0.1,0-0.1H308
			v2.3h0.2c0.1,0,0.2,0,0.3-0.1l0.8-1.1c0.1-0.2,0.2-0.2,0.4-0.1c0.5,0.4,0.9,0.8,1.2,1.3c0.1,0.1,0.1,0.2,0.1,0.4
			c-0.1,0.1-0.2,0.2-0.3,0.1H308v2.9c0,0.3-0.2,0.5-0.4,0.6c-0.4,0.1-0.8,0.1-1.2-0.1c-0.2-0.1-0.3-0.3-0.3-0.5v-3h-1.3l-1.2,0.1
			c-0.1,0-0.1,0-0.1-0.1l-0.1-0.6c0-0.1,0-0.1,0.2-0.1l1.4,0.1h1.3v-2.3h-0.7v0.4c0,0.2-0.1,0.5-0.3,0.6c-0.3,0.1-0.6,0.2-0.9,0.2
			c-0.2,0-0.4,0-0.6-0.2c-0.1-0.1-0.2-0.3-0.1-0.4V4.9c0-0.1,0-0.2,0.1-0.2c0.6,0.1,1.2,0.3,1.8,0.6h0.7V3.5h-1.3l-1.2,0.1
			c-0.1,0-0.1,0-0.1-0.1L303.4,3c0-0.1,0-0.1,0.2-0.1l1.4,0.1h1.3V0.2c0-0.1,0-0.1,0.1-0.1c0.6,0.1,1.3,0.1,1.9,0.3
			c0.3,0.1,0.5,0.2,0.5,0.4s-0.1,0.3-0.4,0.4c-0.1,0-0.2,0.1-0.2,0.3V3h0.6c0.1,0,0.2-0.1,0.3-0.2l0.8-1.1c0.1-0.1,0.3-0.2,0.4-0.1
			c0,0,0,0,0,0c0.5,0.4,0.9,0.8,1.2,1.3c0.1,0.1,0.1,0.2,0.1,0.4c-0.1,0.1-0.2,0.2-0.3,0.2H308v1.8h0.5c0.1,0,0.2,0,0.2-0.1l0.5-0.4
			h0.2c0.6,0.2,1.1,0.5,1.6,0.8c0.4,0.3,0.3,0.5-0.1,0.7c-0.1,0.1-0.2,0.2-0.2,0.3v0.5c2.1-1.8,3.6-4.2,4.2-6.9
			c0-0.1,0.1-0.1,0.2-0.1c0.7,0.2,1.4,0.4,2,0.6c0.3,0.1,0.4,0.3,0.4,0.4s-0.2,0.2-0.5,0.2l-0.2,0.1c0.5,0.9,1.1,1.7,1.9,2.4
			c0.9,0.8,2,1.4,3.2,1.8c0.1,0,0.2,0.1,0.2,0.1s0,0.1-0.1,0.1c-0.7,0.4-1.1,1-1.3,1.7c0,0.1-0.1,0.2-0.2,0.1
			c-1-0.6-1.7-1.5-2.3-2.5c-0.6-1-1.1-2.1-1.5-3.2C315.2,4.4,313.2,6.3,310.7,7.5z M306.2,5.9h-0.7v2.2h0.7V5.9z M306.2,8.6h-0.7
			v2.3h0.7V8.6z M308,8.1h0.8V5.9c-0.1-0.1-0.1-0.1-0.2-0.1H308V8.1z M308,10.9h0.8V8.6H308V10.9z M315.7,12.5V17
			c0,0.3-0.2,0.5-0.4,0.6c-0.3,0.2-0.7,0.2-1,0c-0.2-0.1-0.3-0.3-0.3-0.6v-4.5h-0.8v4.4c0,0.3-0.1,0.5-0.3,0.7
			c-0.3,0.2-0.6,0.3-0.9,0.3c-0.2,0-0.4-0.1-0.5-0.2c-0.1-0.1-0.2-0.3-0.1-0.4V8.2V8h0.1c0.6,0.2,1.2,0.4,1.8,0.6h5.4
			c0.2,0,0.3,0,0.4-0.1l0.4-0.7c0.1-0.1,0.2-0.1,0.4,0c0.5,0.2,1,0.6,1.5,0.9c0.3,0.3,0.2,0.6-0.2,0.7c-0.1,0-0.2,0.2-0.2,0.3v6.4
			c0.1,0.6-0.2,1.1-0.7,1.5c-0.4,0.2-0.8,0.3-1.2,0.3c-0.1,0-0.1-0.1-0.1-0.2c0-0.3,0-0.6-0.2-0.9c-0.1-0.1-0.3-0.3-0.5-0.4V17
			c0,0.3-0.2,0.5-0.4,0.6c-0.3,0.1-0.7,0.1-1,0c-0.2-0.1-0.3-0.3-0.3-0.5v-4.5L315.7,12.5z M314.5,6.3h0.6c0.1,0,0.2-0.1,0.3-0.2
			l1-1.2c0.1-0.1,0.2-0.1,0.3,0c0.6,0.4,1.2,0.9,1.6,1.4c0.1,0.1,0.1,0.2,0.1,0.3s-0.1,0.1-0.3,0.1h-3.6L313.5,7
			c-0.1,0.1-0.2,0-0.2-0.1l-0.2-0.7c0-0.1,0-0.1,0.2-0.1L314.5,6.3z M314,9.2h-0.8V12h0.8V9.2z M316.5,9.2h-0.8V12h0.8V9.2z
			 M318.2,12h0.9V9.5c0-0.2-0.1-0.3-0.2-0.3h-0.6V12z M318.2,16h0.7c0.1-0.1,0.2-0.2,0.2-0.4v-3.1h-0.9V16z"/>
		<path class="st0" d="M43.9,7.3c0-3,0-3.6,0-4.2s-0.2-1-0.8-1.1c-0.2,0-0.5-0.1-0.7-0.1c-0.2,0-0.3,0-0.3-0.2s0.1-0.2,0.4-0.2
			c1,0,2.2,0.1,2.7,0.1c0.8,0,1.8-0.1,2.7-0.1c2.3,0,3.2,0.8,3.5,1.1c0.6,0.6,0.9,1.5,0.9,2.4c0.2,2.5-1.7,4.7-4.3,4.8
			c-0.1,0-0.2,0-0.3,0c-0.1,0-0.3,0-0.4,0c-0.1,0-0.2,0-0.2-0.2s0.1-0.2,0.5-0.2c1,0,2.5-1.3,2.5-3.3c0.1-1.1-0.3-2.2-1.1-3
			c-0.5-0.5-1.2-0.8-1.9-0.8c-0.2,0-0.5,0-0.7,0.1c-0.1,0-0.2,0.2-0.2,0.4v8c0,1.8,0,3.4,0.1,4.3c0.1,0.6,0.2,1,0.7,1.1
			c0.3,0,0.6,0.1,1,0.1c0.2,0,0.3,0.1,0.3,0.2s-0.2,0.2-0.3,0.2c-1.2,0-2.4-0.1-2.9-0.1s-1.6,0.1-2.3,0.1c-0.2,0-0.4-0.1-0.4-0.2
			s0.1-0.2,0.3-0.2c0.2,0,0.5,0,0.7-0.1c0.4-0.1,0.5-0.5,0.5-1.1c0.1-0.8,0.1-2.4,0.1-4.2L43.9,7.3z"/>
		<path class="st0" d="M78.8,13.9c0,1.6,0.3,2.1,0.7,2.2c0.3,0.1,0.7,0.1,1,0.1c0.2,0,0.3,0,0.3,0.2s-0.2,0.2-0.4,0.2
			c-1.3,0-2.1-0.1-2.4-0.1c-0.2,0-1.1,0.1-2.1,0.1c-0.3,0-0.4,0-0.4-0.2s0.1-0.2,0.3-0.2c0.3,0,0.6,0,0.9-0.1
			c0.5-0.2,0.6-0.7,0.6-2.5l0.2-11.8c0-0.4,0.1-0.7,0.3-0.7s0.4,0.3,0.7,0.6s3.2,3.5,6.1,6.4c1.3,1.4,4,4.2,4.3,4.5h0.1l-0.2-8.9
			c0-1.2-0.2-1.6-0.7-1.8c-0.3-0.1-0.7-0.1-1-0.1c-0.2,0-0.3-0.1-0.3-0.2s0.2-0.2,0.5-0.2c1,0,2,0.1,2.4,0.1c0.2,0,1-0.1,1.9-0.1
			c0.3,0,0.4,0,0.4,0.2s-0.1,0.2-0.3,0.2c-0.2,0-0.5,0-0.7,0.1c-0.6,0.2-0.7,0.6-0.7,1.7L90,16.3c0,0.4-0.1,0.6-0.3,0.6
			s-0.4-0.2-0.7-0.4c-1.2-1.2-3.8-3.8-5.8-5.9s-4.3-4.6-4.7-5h-0.1L78.8,13.9z"/>
		<path class="st0" d="M95.4,14.7c-1.6-1.5-2.5-3.7-2.4-5.9c0-2.1,0.8-4,2.3-5.5c1.7-1.5,3.9-2.3,6.2-2.1c1,0,1.9,0.1,2.8,0.2
			c0.7,0.1,1.4,0.3,2,0.3c0.2,0,0.3,0.1,0.3,0.2s-0.1,0.4-0.1,1.1s0,1.8-0.1,2.2s-0.1,0.5-0.2,0.5s-0.2-0.2-0.2-0.4
			c0-0.7-0.3-1.3-0.8-1.8c-1.1-0.9-2.6-1.3-4-1.2c-1.3-0.1-2.7,0.3-3.7,1.2c-1.3,1.4-2,3.3-1.8,5.2c0,4.7,3.6,7.1,6.2,7.1
			c1.7,0,2.8-0.2,3.6-1.1c0.3-0.4,0.5-0.8,0.7-1.3c0.1-0.3,0.1-0.4,0.2-0.4s0.2,0.1,0.2,0.3c-0.1,0.9-0.2,1.8-0.4,2.7
			c0,0.3-0.2,0.5-0.5,0.6c-1.1,0.3-2.3,0.5-3.5,0.5C99.7,17.1,97.2,16.3,95.4,14.7z"/>
		<path class="st0" d="M110.3,7.3c0-3,0-3.6,0-4.2s-0.2-1-0.8-1.1c-0.2,0-0.5-0.1-0.7-0.1c-0.2,0-0.3,0-0.3-0.2s0.1-0.2,0.4-0.2h1.5
			h1.1c0.6,0,4.2,0,4.5,0c0.3,0,0.5-0.1,0.8-0.1c0.1,0,0.2-0.1,0.3-0.1c0.1,0,0.1,0.1,0.1,0.2S117,2,117,2.9c0,0.2-0.1,1.1-0.1,1.3
			s-0.1,0.2-0.2,0.2s-0.2-0.1-0.2-0.3c0-0.2,0-0.5-0.1-0.7c-0.1-0.4-0.3-0.6-1.2-0.7c-0.3,0-2.2-0.1-2.6-0.1c-0.1,0-0.1,0.1-0.1,0.2
			v5c0,0.1,0,0.2,0.1,0.2c0.4,0,2.5,0,2.9,0s0.7-0.1,0.9-0.3s0.2-0.3,0.3-0.3s0.1,0,0.1,0.2s-0.1,0.4-0.1,1.4c0,0.4-0.1,1.2-0.1,1.3
			s0,0.4-0.2,0.4s-0.2-0.1-0.2-0.2c0-0.2,0-0.5-0.1-0.7c-0.1-0.4-0.3-0.7-1-0.8c-0.3,0-2.1-0.1-2.6-0.1c-0.1,0-0.1,0.1-0.1,0.2v1.6
			c0,0.7,0,2.5,0,3.1c0,1.4,0.3,1.7,2.2,1.7c0.6,0,1.1,0,1.7-0.2c0.5-0.2,0.7-0.7,0.8-1.5c0-0.2,0.1-0.3,0.2-0.3s0.1,0.2,0.1,0.4
			c0,0.7-0.1,1.5-0.2,2.2c-0.1,0.5-0.3,0.5-1,0.5c-1.3,0-2.3,0-3.1-0.1s-1.3-0.1-1.9-0.1c-0.2,0-0.6,0-1,0s-0.9,0-1.2,0
			s-0.4-0.1-0.4-0.2s0.1-0.2,0.3-0.2c0.2,0,0.4,0,0.7-0.1c0.4-0.1,0.4-0.5,0.5-1.1c0.1-0.8,0.1-2.4,0.1-4.2L110.3,7.3z"/>
		<path class="st0" d="M120.7,16.4c-0.3-0.1-0.4-0.2-0.4-0.7c0-1.1,0.1-2.3,0.1-2.6s0.1-0.5,0.2-0.5s0.2,0.2,0.2,0.3
			c0,0.3,0.1,0.7,0.2,1c0.3,1.3,1.5,2.1,2.8,2c1.3,0.1,2.5-0.8,2.6-2.2c0,0,0-0.1,0-0.1c0-1-0.3-1.9-1.9-3.2l-0.9-0.7
			c-2.2-1.7-2.9-3.1-2.9-4.7c0-2.2,1.8-3.8,4.5-3.8c0.9,0,1.8,0.1,2.6,0.3c0.2,0,0.3,0.1,0.3,0.2S128,2.7,128,4.2
			c0,0.4-0.1,0.6-0.2,0.6s-0.2-0.1-0.2-0.4c0-0.5-0.2-0.9-0.5-1.3c-0.5-0.7-1.3-1.1-2.1-1c-1.1-0.1-2.2,0.7-2.3,1.8
			c0,0.1,0,0.2,0,0.2c0,0.9,0.4,1.6,2.1,2.9l0.6,0.4c2.4,1.8,3.2,3.2,3.2,5.1c0,1.4-0.7,2.7-1.8,3.5c-0.9,0.6-2,0.9-3.1,0.8
			C122.5,16.9,121.6,16.8,120.7,16.4z"/>
		<path class="st0" d="M131.3,16.4c-0.3-0.1-0.4-0.2-0.4-0.7c0-1.1,0.1-2.3,0.1-2.6s0.1-0.5,0.2-0.5s0.2,0.2,0.2,0.3
			c0,0.3,0.1,0.7,0.2,1c0.3,1.3,1.5,2.1,2.8,2c1.3,0.1,2.5-0.9,2.6-2.2c0,0,0,0,0,0c0-1-0.3-1.9-1.9-3.2l-0.9-0.7
			c-2.2-1.7-2.9-3.1-2.9-4.7c0-2.2,1.8-3.8,4.5-3.8c0.9,0,1.8,0.1,2.6,0.3c0.2,0,0.3,0.1,0.3,0.2s-0.1,0.8-0.1,2.4
			c0,0.4-0.1,0.6-0.2,0.6s-0.2-0.1-0.2-0.4c0-0.5-0.2-0.9-0.5-1.3c-0.5-0.7-1.3-1.1-2.1-1c-1.1-0.1-2.2,0.7-2.3,1.8
			c0,0.1,0,0.2,0,0.2c0,0.9,0.4,1.6,2.1,2.9l0.6,0.4c2.4,1.8,3.2,3.2,3.2,5.1c0,1.4-0.7,2.7-1.9,3.5c-0.9,0.6-2,0.9-3.1,0.8
			C133.1,16.9,132.2,16.8,131.3,16.4z"/>
		<path class="st0" d="M201.7,16.4c-0.3-0.1-0.4-0.2-0.4-0.7c0-1.1,0.1-2.3,0.1-2.6s0.1-0.5,0.2-0.5s0.2,0.2,0.2,0.3
			c0,0.3,0.1,0.7,0.2,1c0.3,1.3,1.5,2.1,2.8,2c1.3,0.1,2.5-0.8,2.6-2.2c0,0,0-0.1,0-0.1c0-1-0.3-1.9-1.9-3.2l-0.9-0.7
			c-2.2-1.7-2.9-3.1-2.9-4.7c0-2.2,1.8-3.8,4.5-3.8c0.9,0,1.8,0.1,2.6,0.3c0.2,0,0.3,0.1,0.3,0.2s-0.1,0.8-0.1,2.4
			c0,0.4-0.1,0.6-0.2,0.6s-0.2-0.1-0.2-0.4c0-0.5-0.2-0.9-0.5-1.3c-0.5-0.7-1.3-1.1-2.1-1c-1.1-0.1-2.2,0.7-2.3,1.8
			c0,0.1,0,0.2,0,0.2c0,0.9,0.4,1.6,2.1,2.9l0.6,0.4c2.4,1.8,3.2,3.2,3.2,5.1c0,1.4-0.7,2.7-1.9,3.5c-0.9,0.6-2,0.9-3.1,0.8
			C203.6,16.9,202.6,16.8,201.7,16.4z"/>
		<path class="st0" d="M223.8,16.4c-0.3-0.1-0.4-0.2-0.4-0.7c0-1.1,0.1-2.3,0.1-2.6s0.1-0.5,0.2-0.5s0.2,0.2,0.2,0.3
			c0,0.3,0.1,0.7,0.2,1c0.3,1.3,1.5,2.1,2.8,2c1.3,0.1,2.5-0.8,2.6-2.2c0,0,0-0.1,0-0.1c0-1-0.3-1.9-1.9-3.2l-0.9-0.7
			c-2.2-1.7-2.9-3.1-2.9-4.7c0-2.2,1.8-3.8,4.5-3.8c0.9,0,1.8,0.1,2.6,0.3c0.2,0,0.3,0.1,0.3,0.2s-0.1,0.8-0.1,2.4
			c0,0.4-0.1,0.6-0.2,0.6s-0.2-0.1-0.2-0.4c0-0.5-0.2-0.9-0.5-1.3c-0.5-0.7-1.3-1.1-2.1-1c-1.1-0.1-2.2,0.7-2.3,1.8
			c0,0.1,0,0.2,0,0.2c0,0.9,0.4,1.6,2.1,2.9l0.6,0.4c2.4,1.8,3.2,3.2,3.2,5.1c0,1.4-0.7,2.7-1.9,3.5c-0.9,0.6-2,0.9-3.1,0.8
			C225.6,16.9,224.7,16.8,223.8,16.4z"/>
		<path class="st0" d="M149.9,14.7c-1.6-1.5-2.5-3.7-2.4-5.9c0-2.1,0.8-4,2.3-5.5c1.7-1.5,3.9-2.3,6.2-2.1c0.9,0,1.9,0.1,2.8,0.2
			c0.7,0.1,1.4,0.3,2,0.3c0.2,0,0.3,0.1,0.3,0.2s-0.1,0.4-0.1,1.1s0,1.8-0.1,2.2s-0.1,0.5-0.2,0.5s-0.2-0.2-0.2-0.4
			c0-0.7-0.3-1.3-0.8-1.8c-1.1-0.9-2.6-1.3-4-1.2c-1.4-0.1-2.7,0.3-3.7,1.2c-1.3,1.4-2,3.3-1.8,5.2c0,4.7,3.5,7.1,6.1,7.1
			c1.7,0,2.8-0.2,3.6-1.1c0.3-0.4,0.5-0.8,0.7-1.3c0.1-0.3,0.1-0.4,0.2-0.4s0.2,0.1,0.2,0.3c-0.1,0.9-0.2,1.8-0.4,2.7
			c0,0.3-0.2,0.5-0.5,0.6c-1.1,0.3-2.3,0.5-3.5,0.5C154.1,17,151.8,16.3,149.9,14.7z"/>
		<path class="st0" d="M164.6,7.3c0-3,0-3.6,0-4.2s-0.2-1-0.8-1.1c-0.2,0-0.5-0.1-0.7-0.1c-0.2,0-0.3,0-0.3-0.2s0.1-0.2,0.4-0.2
			c1,0,2.2,0.1,2.6,0.1c0.6,0,2.1-0.1,2.7-0.1c1.2-0.1,2.5,0.2,3.5,0.9c0.8,0.7,1.3,1.7,1.3,2.7c0,1.5-0.6,2.8-2.5,4.5
			c1.7,2.2,3,4,4.1,5.2c0.5,0.7,1.3,1.2,2.1,1.4c0.2,0,0.4,0.1,0.5,0.1c0.1,0,0.2,0.1,0.2,0.2s-0.1,0.2-0.4,0.2h-1.8
			c-0.7,0.1-1.4-0.1-2-0.4c-1.1-0.8-1.9-1.8-2.6-2.9c-0.8-1.1-1.6-2.4-1.9-2.8c-0.1-0.1-0.2-0.2-0.3-0.1h-1.6c-0.1,0-0.1,0-0.1,0.2
			v0.3c0,1.9,0,3.4,0.1,4.3c0.1,0.6,0.2,1,0.7,1.1c0.3,0,0.6,0.1,0.9,0.1c0.1,0,0.2,0.1,0.2,0.2s-0.1,0.2-0.4,0.2
			c-1.1,0-2.5-0.1-2.8-0.1s-1.6,0.1-2.3,0.1c-0.2,0-0.4-0.1-0.4-0.2s0.1-0.2,0.3-0.2c0.2,0,0.5,0,0.7-0.1c0.4-0.1,0.5-0.5,0.6-1.1
			c0.1-0.8,0.1-2.4,0.1-4.2L164.6,7.3z M166.8,8.9c0,0.2,0,0.3,0.2,0.4c0.5,0.1,1,0.2,1.4,0.2c0.5,0.1,1-0.1,1.4-0.3
			c0.8-0.8,1.2-1.9,1.1-3c0-2.8-1.8-3.6-2.9-3.6c-0.3,0-0.7,0-1,0.1c-0.1,0-0.2,0.1-0.2,0.3V8.9z"/>
		<path class="st0" d="M177.8,7.3c0-3,0-3.6,0-4.2s-0.2-1-0.8-1.1c-0.2,0-0.5-0.1-0.8-0.1c-0.2,0-0.3,0-0.3-0.2s0.1-0.2,0.4-0.2
			c1,0,2.2,0.1,2.8,0.1s1.7-0.1,2.4-0.1c0.3,0,0.4,0,0.4,0.2s-0.1,0.2-0.3,0.2c-0.2,0-0.4,0-0.6,0.1c-0.5,0.1-0.7,0.4-0.7,1.1
			s0,1.2,0,4.2v2.8c0,2.9,0.6,4.1,1.5,4.9c0.7,0.6,1.5,0.9,2.4,0.8c1,0,1.9-0.4,2.6-1.1c1.1-1.1,1.1-2.9,1.1-4.9V7.3
			c0-3,0-3.6,0-4.2s-0.2-1-0.8-1.1c-0.2,0-0.5-0.1-0.7-0.1c-0.2,0-0.3,0-0.3-0.2s0.1-0.2,0.4-0.2c1,0,2.2,0.1,2.2,0.1
			c0.2,0,1.4-0.1,2.2-0.1c0.3,0,0.4,0,0.4,0.2s-0.1,0.2-0.3,0.2c-0.2,0-0.4,0-0.6,0.1c-0.5,0.1-0.7,0.4-0.7,1.1s0,1.2,0,4.2v2.1
			c0,2.2-0.2,4.6-1.8,6c-1.1,1-2.5,1.5-4,1.4c-1.5,0.1-3.1-0.4-4.3-1.4c-1-0.9-1.7-2.4-1.7-5.3L177.8,7.3z"/>
		<path class="st0" d="M194.4,7.3c0-3,0-3.6,0-4.2s-0.2-1-0.6-1.1c-0.2-0.1-0.4-0.1-0.7-0.1c-0.2,0-0.3,0-0.3-0.2s0.1-0.2,0.4-0.2
			c0.7,0,1.9,0.1,2.4,0.1s1.6-0.1,2.3-0.1c0.2,0,0.4,0,0.4,0.2s-0.1,0.2-0.3,0.2c-0.2,0-0.4,0-0.6,0.1c-0.5,0.1-0.6,0.4-0.7,1.1
			s0,1.2,0,4.2v3.5c0,1.9,0,3.5,0.1,4.4c0.1,0.5,0.2,0.9,0.7,1c0.3,0,0.6,0.1,0.9,0.1c0.2,0,0.3,0.1,0.3,0.2s-0.1,0.2-0.4,0.2
			c-1.2,0-2.4-0.1-2.9-0.1s-1.6,0.1-2.3,0.1c-0.2,0-0.4-0.1-0.4-0.2s0.1-0.2,0.3-0.2c0.2,0,0.5,0,0.7-0.1c0.4-0.1,0.5-0.4,0.5-1
			c0.1-0.8,0.1-2.4,0.1-4.3L194.4,7.3z"/>
		<path class="st0" d="M213.3,7.3c0-3,0-3.6,0-4.2s-0.2-1-0.8-1.1c-0.2,0-0.5-0.1-0.7-0.1c-0.2,0-0.3,0-0.3-0.2s0.1-0.2,0.4-0.2h1.5
			h1.2c0.6,0,4.2,0,4.6,0c0.3,0,0.5-0.1,0.8-0.1c0.1,0,0.2-0.1,0.3-0.1c0.1,0,0.1,0.1,0.1,0.2s-0.1,0.4-0.1,1.3
			c0,0.2-0.1,1.1-0.1,1.3s-0.1,0.2-0.2,0.2s-0.2-0.1-0.2-0.3c0-0.2,0-0.5-0.1-0.7c-0.1-0.4-0.3-0.6-1.2-0.7c-0.3,0-2.2-0.1-2.6-0.1
			c-0.1,0-0.1,0.1-0.1,0.2v5c0,0.1,0,0.2,0.1,0.2c0.4,0,2.5,0,2.9,0s0.7-0.1,0.9-0.3s0.2-0.3,0.3-0.3s0.1,0,0.1,0.2S220,8,219.9,9
			c0,0.4-0.1,1.2-0.1,1.3s0,0.4-0.2,0.4s-0.2-0.1-0.2-0.2c0-0.2,0-0.5-0.1-0.7c-0.1-0.4-0.4-0.7-1-0.8c-0.4,0-2.2-0.1-2.6-0.1
			c-0.1,0-0.1,0.1-0.1,0.2v1.6c0,0.7,0,2.5,0,3.1c0,1.4,0.3,1.7,2.2,1.7c0.6,0,1.2,0,1.7-0.2c0.5-0.2,0.7-0.7,0.8-1.5
			c0-0.2,0.1-0.3,0.2-0.3s0.1,0.2,0.1,0.4c0,0.7-0.1,1.5-0.2,2.2c-0.1,0.5-0.3,0.5-1,0.5c-1.4,0-2.4,0-3.2-0.1s-1.4-0.1-1.9-0.1
			c-0.2,0-0.6,0-1,0s-0.9,0-1.3,0s-0.4-0.1-0.4-0.2s0.1-0.2,0.3-0.2c0.2,0,0.4,0,0.7-0.1c0.4-0.1,0.5-0.5,0.5-1.1
			c0.1-0.8,0.1-2.4,0.1-4.2L213.3,7.3z"/>
		<path class="st0" d="M73.7,16.3c-0.3,0-0.6,0-0.9-0.1c-0.6-0.1-0.7-0.4-0.7-1c-0.1-0.9-0.1-2.4-0.1-4.4V7.3c0-3,0-3.6,0-4.2
			s0.2-1,0.7-1.1c0.2,0,0.4-0.1,0.6-0.1c0.2,0,0.3,0,0.3-0.2s-0.2-0.2-0.4-0.2c-0.7,0-1.8,0.1-2.3,0.1s-1.7-0.1-2.4-0.1
			c-0.3,0-0.4,0-0.4,0.2s0.1,0.2,0.3,0.2c0.2,0,0.5,0,0.7,0.1c0.4,0.1,0.6,0.4,0.6,1.1s0,1.2,0,4.2v3.5c0,1.9,0,3.5-0.1,4.3
			c-0.1,0.6-0.2,0.9-0.5,1c-0.2,0-0.4,0.1-0.6,0.1h-0.5c-0.2,0-0.3,0-0.5,0c-0.8-0.2-1.6-0.7-2.1-1.4c-1.1-1.2-2.4-3-4-5.2
			c1.9-1.6,2.5-3,2.5-4.5c0-1.1-0.5-2.1-1.3-2.7c-1-0.6-2.2-1-3.4-0.9c-0.6,0-2,0.1-2.6,0.1c-0.4,0-1.6-0.1-2.5-0.1
			c-0.3,0-0.4,0-0.4,0.2s0.1,0.2,0.3,0.2c0.2,0,0.5,0,0.7,0.1c0.6,0.1,0.8,0.5,0.8,1.1s0,1.2,0,4.2v3.5c0,1.8,0,3.4-0.1,4.2
			c-0.1,0.6-0.2,1-0.5,1.1c-0.2,0.1-0.4,0.1-0.7,0.1c-0.2,0-0.3,0.1-0.3,0.2s0.1,0.2,0.4,0.2c0.7,0,1.9-0.1,2.3-0.1s1.7,0.1,2.7,0.1
			c0.2,0,0.4-0.1,0.4-0.2s-0.1-0.2-0.2-0.2c-0.3,0-0.6,0-0.9-0.1c-0.6-0.1-0.7-0.5-0.7-1.1c-0.1-0.8-0.1-2.4-0.1-4.3v-0.3
			c0-0.1,0.1-0.2,0.2-0.2h1.6c0.1,0,0.3,0,0.3,0.1c0.2,0.3,1.1,1.6,1.8,2.8c0.6,1.2,1.5,2.2,2.6,3c0.6,0.3,1.3,0.5,2,0.4h2.3
			c0.7,0,1.9-0.1,2.3-0.1s1.7,0.1,2.9,0.1c0.2,0,0.3-0.1,0.3-0.2S73.9,16.3,73.7,16.3z M59.1,9.5c-0.5,0-1-0.1-1.4-0.2
			c-0.1-0.1-0.2-0.1-0.2-0.4V2.9c0-0.2,0-0.2,0.2-0.3c0.3-0.1,0.7-0.1,1-0.1c1.1,0,2.8,0.8,2.8,3.6c0.1,1.1-0.3,2.2-1.1,3
			C60,9.4,59.6,9.6,59.1,9.5z"/>
		<path class="st0" d="M14.1,12c4.7,2.9,6.7,1.4,8.7,0.1c4.9-3.2,7.7,1.1,10.8,1.5c1.1,0.1,2.3-0.2,3.2-0.7c-4,7.3-9.2,2.8-11.3,1.8
			c-1.7-0.8-2.6-1.8-6.4,0.1c-3.3,1.6-7.7,3-11.8,1.7l0,0c0.5-1.3,1.2-3,2.4-3c0.4,0,2.4,0.1,2.6,0.1c0.2,0,0.4-0.2,0.4-0.4
			c0.1-0.4-0.1-0.5-0.1-0.7s0.1-0.2,0.2-0.3s0.2-0.3,0.2-0.4s-0.3-0.1-0.4-0.2s-0.1-0.2,0.1-0.2c0.7-0.1,0.6-0.4,0.6-0.6
			c-0.3-0.5,0.1-0.6,0.3-0.6c0.1,0,0.3,0,0.4,0c0.4-0.1,0.2-0.5,0.2-0.5s-0.4-2.3-0.5-2.7s0.1-0.5,0.4-0.3l0.1,0.1l0,0
			c4.4,2.8,5,2.6,8.7,0.1c4.8-3.1,7.4,1,10.6,1.5c1.1,0.1,2.3-0.2,3.2-0.8c-3.5,6.4-8.5,3.3-12.4,1.5c-3.8-1.8-6.3,3.4-10.3,2.7
			C14,11.9,14,12,14.1,12z M33.8,3c-4-0.5-6.2-4-10.5-1.1c-2.6,1.7-3.6,3.2-8.8,0c-1.7-1-3.6-1.6-5.6-1.9C4.2-0.2,0.3,3.3,0,7.9
			C0,8,0,8,0,8c-0.2,2.4,0.7,4.7,2.5,6.4c0.1,0.1,0.3,0.1,0.5,0c0,0,0.1-0.1,0.1-0.1v-0.1l2.7-6.3c0,0,1.4-3.8,5-2.6
			c1.1,0.4,2.1,0.7,2.9,1c2,0.6,3.5,0.6,5.9-1.2c1.3-1.3,3.4-1.7,5.1-1c3.2,1.5,8.5,5.1,12.3-1.8C36,2.9,34.9,3.1,33.8,3z"/>
		<path class="st0" d="M233.1,2.8c0-0.8,0.6-1.5,1.4-1.5s1.5,0.6,1.5,1.4c0,0.8-0.6,1.5-1.4,1.5c0,0-0.1,0-0.1,0
			C233.8,4.2,233.2,3.6,233.1,2.8C233.2,2.8,233.2,2.8,233.1,2.8z M235.8,2.8c0-0.6-0.5-1.2-1.1-1.2c-0.6,0-1.2,0.5-1.2,1.2
			s0.5,1.2,1.2,1.2C235.2,3.9,235.8,3.4,235.8,2.8z M234,2.5V2.2c0-0.1-0.1-0.1-0.2-0.1s0,0,0,0s0-0.1,0.1-0.1h0.1h0.3h0.4
			c0.3,0,0.7,0,0.7,0.4c0,0.2-0.1,0.3-0.3,0.5l0.3,0.3c0.2,0.2,0.2,0.2,0.3,0.2l0,0c0,0,0,0.1-0.1,0.1c-0.2,0-0.5-0.1-0.6-0.3
			l-0.2-0.3h-0.2v0.1c0,0.3,0,0.3,0,0.3c0.1,0,0.1,0,0.2,0l0,0c0,0,0,0.1-0.1,0.1h-0.1h-0.2h-0.2h-0.1c0,0-0.1,0-0.1-0.1l0,0
			c0.1,0,0.2,0,0.2-0.1c0-0.1,0-0.3,0-0.4L234,2.5z M234.4,2.7c0.1,0,0.1,0,0.2,0c0,0,0.1,0,0.1,0c0.1-0.1,0.1-0.2,0.1-0.3
			c0-0.2-0.1-0.3-0.3-0.4c0,0,0,0,0,0c0,0-0.1,0-0.1,0V2.7z"/>
	</g>
</g>
</svg>
