<svg xmlns="http://www.w3.org/2000/svg" viewBox="0 0 75.62 54.01"><defs><style>.cls-1{fill:#005ea1;}ol>li {             text-align: justify;         }</style></defs><title>movie</title><g id="圖層_2" data-name="圖層 2"><g id="圖層_1-2" data-name="圖層 1"><path class="cls-1" d="M75.62,7.72V3.09A3.09,3.09,0,0,0,72.53,0H3.09A3.09,3.09,0,0,0,0,3.09V7.72H7.72v7.72H0v7.72H7.72v7.72H0v7.72H7.72V46.3H0v4.63A3.09,3.09,0,0,0,3.09,54H72.53a3.09,3.09,0,0,0,3.09-3.09V46.3H67.9V38.58h7.72V30.86H67.9V23.15h7.72V15.43H67.9V7.72ZM29.32,38.58V15.43L48.61,27Z"/></g></g></svg>